<svg width="250" height="66" viewBox="0 0 250 66" fill="none" xmlns="http://www.w3.org/2000/svg">
<path d="M235.8 6.51412C254.03 15.4822 252.712 42.0408 240.407 53.5C228.102 64.9592 213.407 58.5 195.407 59C177.407 59.5 161.059 71.7818 135.994 62.3155C111.147 52.9319 74.0616 58.4634 60.7532 60.4484L60.4069 60.5001C47.4069 62.438 29.407 66.5 19.7809 62.3154C10.1547 58.1309 5.72199 50.7976 6.56449 38.8988C7.40699 27 -5.09301 22.5 2.40699 10C9.90699 -2.49999 52.32 5.00004 91.907 10C131.494 15 163.407 10 184.407 4.5C205.407 -1 218.482 -2.00555 235.8 6.51412Z" fill="#E01A79"/>
</svg>
