<svg width="300" height="73" viewBox="0 0 296 73" fill="none" xmlns="http://www.w3.org/2000/svg">
<path d="M266.5 17.5C289 17.5 302 36.5 293.5 52C285 67.5 270 66.5 240 67.5C210 68.5 203.5 75.0001 160.5 72.5001C117.5 70.0001 84.9987 59.6341 69.0604 61.5826C53.1221 63.531 34.5 76 17.5 72.5001C0.49997 69.0002 -2.04904 54 1.49997 40C5.04898 26 -3.99999 15.5 10.5 4.5C25 -6.5 59.1456 5.78298 107.68 10.8099C156.215 15.8369 165.5 14.7008 194 8C222.5 1.29923 244 17.5 266.5 17.5Z" fill="#E01A79"/>
</svg>
