<svg width="280" height="73" viewBox="0 0 280 73" fill="none" xmlns="http://www.w3.org/2000/svg">
<path d="M262.425 8.32887C282.425 17.3289 284.425 45.8289 270.925 57.3289C257.425 68.8289 243.925 69.0927 218.925 70.8289C193.925 72.565 180.425 73.8289 152.925 64.3289C125.425 54.8289 110.197 66.9054 81.4247 70.8289C70.4247 72.3289 42.3661 73.2454 25.4247 64.3289C15.9247 59.3289 9.42468 54.8289 10.9247 40.8289C12.4247 26.8289 -2.07531 24.8289 1.42469 11.8289C4.92469 -1.17114 43.9247 3.32886 65.4247 4.32886C86.9247 5.32886 171.925 0.828886 187.425 0.828888C202.925 0.828889 243.425 -0.221126 262.425 8.32887Z" fill="#E01A79"/>
</svg>
