<svg width="210" height="68" viewBox="0 0 199 68" fill="none" xmlns="http://www.w3.org/2000/svg">
<path d="M186.927 12.5743C196.427 22.0743 193.927 29.4557 193.927 38.015C193.927 46.5742 203.927 53.0742 195.427 61.5742C186.927 70.0742 149.927 69.5742 128.927 62.5742C107.927 55.5742 83.9258 57.6491 67.9875 59.5975C52.0492 61.546 27.9269 63.5743 19.4269 62.5743C10.9269 61.5742 -2.57312 55.5743 0.427035 38.015C3.42719 20.4557 -2.07308 14.5743 7.92689 4.57428C17.9269 -5.42572 52.048 3.57423 67.9875 7.07423C83.927 10.5742 119.927 5.15567 136.927 3.57428C153.927 1.99289 177.427 3.07428 186.927 12.5743Z" fill="#E01A79"/>
</svg>
