<svg width="40" height="40" viewBox="0 0 40 40" fill="none" xmlns="http://www.w3.org/2000/svg">
        <rect width="40" height="40" rx="8" fill="#E01A79"/>
        <path transform="translate(12,8)" d="M9.16846 14.4214H4.78564V21.1084C4.78564 22.0645 4.56006 22.7896 4.10889 23.2837C3.65771 23.7778 3.08838 24.0249 2.40088 24.0249C1.68115 24.0249 1.10107 23.7832 0.660645 23.2998C0.220215 22.8057 0 22.0859 0 21.1406V2.93262C0 1.87988 0.241699 1.12793 0.725098 0.676758C1.2085 0.225586 1.97656 0 3.0293 0H9.16846C10.9839 0 12.3804 0.139648 13.3579 0.418945C14.3247 0.6875 15.1572 1.1333 15.8555 1.75635C16.5645 2.37939 17.1016 3.14209 17.4668 4.04443C17.832 4.94678 18.0146 5.96191 18.0146 7.08984C18.0146 9.49609 17.2734 11.3223 15.791 12.5684C14.3086 13.8037 12.1011 14.4214 9.16846 14.4214ZM8.0083 3.59326H4.78564V10.812H8.0083C9.13623 10.812 10.0762 10.6938 10.8281 10.4575C11.5908 10.2212 12.1709 9.83447 12.5684 9.29736C12.9658 8.76025 13.1646 8.05664 13.1646 7.18652C13.1646 6.14453 12.8584 5.2959 12.2461 4.64062C11.5586 3.94238 10.146 3.59326 8.0083 3.59326Z" fill="white"/>
      </svg>