<svg width="428" height="434" viewBox="0 0 428 434" fill="none" xmlns="http://www.w3.org/2000/svg">
<path d="M460.494 83.8339C478.359 133.1 545.621 217.054 518.269 275.964C490.716 335.31 404.455 355.3 344.72 358.745C284.986 362.19 240.857 325.72 190.109 335.347C117.4 349.141 63.0417 465.293 -4.11301 424.924C-70.2666 385.156 4.26847 277.317 -24.3625 206.421C-48.287 147.179 -114.938 116.625 -123.28 71.6449C-131.622 26.6643 -116.714 3.3562 -109.098 -12.6069C-71.225 -50.7532 133.432 -256.885 158.132 -281.763C193.61 -247.01 234.812 -206.102 253.988 -187.064C273.164 -168.025 389.514 -52.5053 438.75 -3.62281C441.07 13.7357 442.63 34.5681 460.494 83.8339Z" fill="url(#paint0_linear_83_4)"/>
<defs>
<linearGradient id="paint0_linear_83_4" x1="156.173" y1="-45.6937" x2="248.616" y2="504.742" gradientUnits="userSpaceOnUse">
<stop stop-color="#E01A79"/>
<stop offset="1" stop-color="#FF88BA"/>
</linearGradient>
</defs>
</svg>
